sfk_cyclingleg_theta_95_states
version=1
nRows=4
nColumns=53
inDegrees=yes

# SIMM Motion File Header:
name sfk_cyclingleg_theta_95_states
datacolumns 53
datarows 4
otherdata 1
range 0.00000000 0.00962402
endheader
time	/jointset/bb/crank_angle/value	/jointset/bb/crank_angle/speed	/jointset/spindle/pedal_angle_r/value	/jointset/spindle/pedal_angle_r/speed	/jointset/ground_pelvis/pelvis_tilt/value	/jointset/ground_pelvis/pelvis_tilt/speed	/jointset/ground_pelvis/pelvis_list/value	/jointset/ground_pelvis/pelvis_list/speed	/jointset/ground_pelvis/pelvis_rotation/value	/jointset/ground_pelvis/pelvis_rotation/speed	/jointset/ground_pelvis/pelvis_tx/value	/jointset/ground_pelvis/pelvis_tx/speed	/jointset/ground_pelvis/pelvis_ty/value	/jointset/ground_pelvis/pelvis_ty/speed	/jointset/ground_pelvis/pelvis_tz/value	/jointset/ground_pelvis/pelvis_tz/speed	/jointset/hip_r/hip_angle_r/value	/jointset/hip_r/hip_angle_r/speed	/jointset/hip_r/hip_adduction_r/value	/jointset/hip_r/hip_adduction_r/speed	/jointset/hip_r/hip_rotation_r/value	/jointset/hip_r/hip_rotation_r/speed	/jointset/knee_r/knee_angle_r/value	/jointset/knee_r/knee_angle_r/speed	/jointset/knee_r/tib_tx_r/value	/jointset/knee_r/tib_tx_r/speed	/jointset/knee_r/tib_ty_r/value	/jointset/knee_r/tib_ty_r/speed	/jointset/tib_pat_r/pat_angle_r/value	/jointset/tib_pat_r/pat_angle_r/speed	/jointset/tib_pat_r/pat_tx_r/value	/jointset/tib_pat_r/pat_tx_r/speed	/jointset/tib_pat_r/pat_ty_r/value	/jointset/tib_pat_r/pat_ty_r/speed	/jointset/ankle_r/ankle_angle_r/value	/jointset/ankle_r/ankle_angle_r/speed	/jointset/subtalar_r/subtalar_angle_r/value	/jointset/subtalar_r/subtalar_angle_r/speed	/jointset/mtp_r/mtp_angle_r/value	/jointset/mtp_r/mtp_angle_r/speed	/forceset/bifemlh_r/activation	/forceset/bifemlh_r/fiber_length	/forceset/bifemsh_r/activation	/forceset/bifemsh_r/fiber_length	/forceset/glut_max2_r/activation	/forceset/glut_max2_r/fiber_length	/forceset/vas_int_r/activation	/forceset/vas_int_r/fiber_length	/forceset/med_gas_r/activation	/forceset/med_gas_r/fiber_length	/forceset/tib_ant_r/activation	/forceset/tib_ant_r/fiber_length
      0.00000000	    -10.13488126	   -480.13863232	      0.64355488	    612.35734461	     -0.00000000	      0.00000000	      0.00000000	      0.00000000	      0.00000000	     -0.00000000	     -0.10000000	     -0.00000000	     -0.05000000	      0.00000000	      0.00000000	      0.00000000	     80.55582287	     45.31534704	      4.05467675	      1.31089446	     -4.06201431	     14.17147980	   -117.83891153	    131.69571427	     -0.00295912	      0.04730844	     -0.49535404	      0.04204608	     17.65118208	      0.02709027	      0.02053634	      0.06606630	     -0.02443116	      0.01074138	     28.50713043	    -46.09697867	     -0.00000000	      0.00000000	      0.00000000	     -0.00000000	      0.05000000	      0.13637264	      0.05000000	      0.14460642	      0.05000000	      0.15412057	      0.05000000	      0.16156158	      0.05000000	      0.12982679	      0.05000000	      0.11005072
      0.00116229	    -10.69294362	   -480.13863232	      1.35500479	    611.85809621	      0.00000000	      0.00000000	     -0.00000000	      0.00000000	      0.00000000	      0.00000000	     -0.10000000	     -0.00000000	     -0.05000000	     -0.00000000	      0.00000000	      0.00000000	     80.60719992	     43.08959843	      4.05621389	      1.33407189	     -4.04542822	     14.36822575	   -117.68456148	    133.89714668	     -0.00290377	      0.04791811	     -0.49530474	      0.04279268	     17.65120998	      0.02084719	      0.02061371	      0.06706907	     -0.02441858	      0.01090111	     28.45326518	    -46.58790791	      0.00000000	      0.00000000	     -0.00000000	      0.00000000	      0.04917243	      0.13637371	      0.04917243	      0.14460831	      0.04917243	      0.15412210	      0.04917243	      0.16154920	      0.04917243	      0.12982828	      0.04917243	      0.11005239
      0.00539316	    -12.72434343	   -480.13863232	      3.93976491	    609.98927337	      0.00000000	      0.00000000	     -0.00000000	     -0.00000000	      0.00000000	      0.00000000	     -0.10000000	     -0.00000000	     -0.05000000	     -0.00000000	      0.00000000	     -0.00000000	     80.77226917	     34.92655498	      4.06203393	      1.41668003	     -3.98316770	     15.05594145	   -117.10131902	    141.77601047	     -0.00269654	      0.05001451	     -0.49511798	      0.04548328	     17.65124465	     -0.00539546	      0.02090502	      0.07061047	     -0.02437126	      0.01146178	     28.25260855	    -48.22736792	     -0.00000000	     -0.00000000	      0.00000000	      0.00000000	      0.04628774	      0.13639810	      0.04628774	      0.14464394	      0.04628774	      0.15415308	      0.04628774	      0.16137867	      0.04628774	      0.12985902	      0.04628774	      0.11009955
      0.00962402	    -14.75574324	   -480.13863232	      6.51646838	    608.05229855	      0.00000000	     -0.00000000	     -0.00000000	     -0.00000000	      0.00000000	      0.00000000	     -0.10000000	     -0.00000000	     -0.05000000	      0.00000000	      0.00000000	      0.00000000	     80.90263045	     26.68672429	      4.06819706	      1.49618533	     -3.91809184	     15.69913150	   -116.48519700	    149.43886035	     -0.00248084	      0.05191521	     -0.49491993	      0.04812926	     17.65115605	     -0.03750215	      0.02121095	      0.07397833	     -0.02432164	      0.01198875	     28.04550305	    -49.63684370	     -0.00000000	     -0.00000000	      0.00000000	      0.00000000	      0.04359157	      0.13646007	      0.04359157	      0.14471070	      0.04359157	      0.15421556	      0.04359157	      0.16111285	      0.04359157	      0.12991968	      0.04359157	      0.11025038
